<svg id="visual" viewBox="0 0 900 600" width="900" height="600" xmlns="http://www.w3.org/2000/svg" xmlns:xlink="http://www.w3.org/1999/xlink" version="1.1"><path d="M0 228L21.5 230.5C43 233 86 238 128.8 243.2C171.7 248.3 214.3 253.7 257.2 244.3C300 235 343 211 385.8 212.5C428.7 214 471.3 241 514.2 248.8C557 256.7 600 245.3 642.8 235.7C685.7 226 728.3 218 771.2 223.5C814 229 857 248 878.5 257.5L900 267L900 0L878.5 0C857 0 814 0 771.2 0C728.3 0 685.7 0 642.8 0C600 0 557 0 514.2 0C471.3 0 428.7 0 385.8 0C343 0 300 0 257.2 0C214.3 0 171.7 0 128.8 0C86 0 43 0 21.5 0L0 0Z" fill="#9900ff"></path><path d="M0 231L21.5 217.3C43 203.7 86 176.3 128.8 169.8C171.7 163.3 214.3 177.7 257.2 189C300 200.3 343 208.7 385.8 211.7C428.7 214.7 471.3 212.3 514.2 202.5C557 192.7 600 175.3 642.8 180.5C685.7 185.7 728.3 213.3 771.2 221.8C814 230.3 857 219.7 878.5 214.3L900 209L900 0L878.5 0C857 0 814 0 771.2 0C728.3 0 685.7 0 642.8 0C600 0 557 0 514.2 0C471.3 0 428.7 0 385.8 0C343 0 300 0 257.2 0C214.3 0 171.7 0 128.8 0C86 0 43 0 21.5 0L0 0Z" fill="#8800e2"></path><path d="M0 188L21.5 183.5C43 179 86 170 128.8 158.3C171.7 146.7 214.3 132.3 257.2 129.3C300 126.3 343 134.7 385.8 132.3C428.7 130 471.3 117 514.2 122.2C557 127.3 600 150.7 642.8 164.8C685.7 179 728.3 184 771.2 174C814 164 857 139 878.5 126.5L900 114L900 0L878.5 0C857 0 814 0 771.2 0C728.3 0 685.7 0 642.8 0C600 0 557 0 514.2 0C471.3 0 428.7 0 385.8 0C343 0 300 0 257.2 0C214.3 0 171.7 0 128.8 0C86 0 43 0 21.5 0L0 0Z" fill="#7700c6"></path><path d="M0 85L21.5 91.7C43 98.3 86 111.7 128.8 110C171.7 108.3 214.3 91.7 257.2 82.2C300 72.7 343 70.3 385.8 81C428.7 91.7 471.3 115.3 514.2 120.8C557 126.3 600 113.7 642.8 109C685.7 104.3 728.3 107.7 771.2 111.7C814 115.7 857 120.3 878.5 122.7L900 125L900 0L878.5 0C857 0 814 0 771.2 0C728.3 0 685.7 0 642.8 0C600 0 557 0 514.2 0C471.3 0 428.7 0 385.8 0C343 0 300 0 257.2 0C214.3 0 171.7 0 128.8 0C86 0 43 0 21.5 0L0 0Z" fill="#6600ab"></path><path d="M0 86L21.5 77C43 68 86 50 128.8 49.3C171.7 48.7 214.3 65.3 257.2 69.5C300 73.7 343 65.3 385.8 65.5C428.7 65.7 471.3 74.3 514.2 78.8C557 83.3 600 83.7 642.8 75.7C685.7 67.7 728.3 51.3 771.2 46.2C814 41 857 47 878.5 50L900 53L900 0L878.5 0C857 0 814 0 771.2 0C728.3 0 685.7 0 642.8 0C600 0 557 0 514.2 0C471.3 0 428.7 0 385.8 0C343 0 300 0 257.2 0C214.3 0 171.7 0 128.8 0C86 0 43 0 21.5 0L0 0Z" fill="#560090"></path></svg>